<svg width="21" height="20" viewBox="0 0 21 20" fill="none" xmlns="http://www.w3.org/2000/svg">
<path d="M17.8081 6.14171C17.8081 6.14171 17.8081 6.14171 17.8081 6.07504L17.7581 5.95004C17.7407 5.92352 17.7212 5.89844 17.6998 5.87504C17.6775 5.83976 17.6524 5.80632 17.6248 5.77504L17.5498 5.71671L17.4165 5.65004L11.1665 1.79171C11.034 1.70893 10.881 1.66504 10.7248 1.66504C10.5686 1.66504 10.4156 1.70893 10.2831 1.79171L4.08313 5.65004L4.00813 5.71671L3.93313 5.77504C3.9055 5.80632 3.88042 5.83976 3.85813 5.87504C3.83671 5.89844 3.8172 5.92352 3.7998 5.95004L3.7498 6.07504C3.7498 6.07504 3.7498 6.07504 3.7498 6.14171C3.7416 6.2137 3.7416 6.28639 3.7498 6.35838V13.6417C3.74951 13.7833 3.78533 13.9227 3.85385 14.0466C3.92238 14.1706 4.02137 14.275 4.14146 14.35L10.3915 18.2084C10.4299 18.2321 10.4722 18.2491 10.5165 18.2584C10.5165 18.2584 10.5581 18.2584 10.5831 18.2584C10.7241 18.3031 10.8755 18.3031 11.0165 18.2584C11.0165 18.2584 11.0581 18.2584 11.0831 18.2584C11.1274 18.2491 11.1697 18.2321 11.2081 18.2084L17.4165 14.35C17.5366 14.275 17.6355 14.1706 17.7041 14.0466C17.7726 13.9227 17.8084 13.7833 17.8081 13.6417V6.35838C17.8163 6.28639 17.8163 6.2137 17.8081 6.14171ZM9.91646 16.0084L5.33313 13.175V7.85838L9.91646 10.6834V16.0084ZM10.7498 9.24171L6.08313 6.35838L10.7498 3.48337L15.4165 6.35838L10.7498 9.24171ZM16.1665 13.175L11.5831 16.0084V10.6834L16.1665 7.85838V13.175Z" fill="white"/>
</svg>
