<svg width="21" height="20" viewBox="0 0 21 20" fill="none" xmlns="http://www.w3.org/2000/svg">
<path d="M6.43341 12.9502C6.2782 13.1063 6.19108 13.3175 6.19108 13.5377C6.19108 13.7578 6.2782 13.969 6.43341 14.1252C6.51088 14.2033 6.60305 14.2653 6.7046 14.3076C6.80615 14.3499 6.91507 14.3717 7.02508 14.3717C7.13509 14.3717 7.24401 14.3499 7.34556 14.3076C7.44711 14.2653 7.53928 14.2033 7.61674 14.1252C7.77195 13.969 7.85907 13.7578 7.85907 13.5377C7.85907 13.3175 7.77195 13.1063 7.61674 12.9502C7.53928 12.872 7.44711 12.8101 7.34556 12.7677C7.24401 12.7254 7.13509 12.7037 7.02508 12.7037C6.91507 12.7037 6.80615 12.7254 6.7046 12.7677C6.60305 12.8101 6.51088 12.872 6.43341 12.9502ZM6.43341 5.87516C6.2782 6.03129 6.19108 6.2425 6.19108 6.46266C6.19108 6.68281 6.2782 6.89402 6.43341 7.05016C6.51088 7.12826 6.60305 7.19026 6.7046 7.23257C6.80615 7.27487 6.91507 7.29665 7.02508 7.29665C7.13509 7.29665 7.24401 7.27487 7.34556 7.23257C7.44711 7.19026 7.53928 7.12826 7.61674 7.05016C7.77195 6.89402 7.85907 6.68281 7.85907 6.46266C7.85907 6.2425 7.77195 6.03129 7.61674 5.87516C7.53928 5.79705 7.44711 5.73505 7.34556 5.69275C7.24401 5.65044 7.13509 5.62866 7.02508 5.62866C6.91507 5.62866 6.80615 5.65044 6.7046 5.69275C6.60305 5.73505 6.51088 5.79705 6.43341 5.87516ZM10.5584 14.2085C10.3936 14.2085 10.2325 14.2574 10.0954 14.3489C9.9584 14.4405 9.85158 14.5706 9.78851 14.7229C9.72544 14.8752 9.70894 15.0427 9.74109 15.2044C9.77324 15.366 9.85261 15.5145 9.96916 15.6311C10.0857 15.7476 10.2342 15.827 10.3958 15.8591C10.5575 15.8913 10.725 15.8748 10.8773 15.8117C11.0296 15.7486 11.1597 15.6418 11.2513 15.5048C11.3429 15.3678 11.3917 15.2066 11.3917 15.0418C11.3974 14.9289 11.38 14.8161 11.3407 14.7101C11.3013 14.6041 11.2409 14.5073 11.1629 14.4254C11.0849 14.3436 10.9912 14.2785 10.8872 14.234C10.7833 14.1895 10.6714 14.1667 10.5584 14.1668V14.2085ZM5.55841 9.20849C5.39359 9.20849 5.23248 9.25736 5.09544 9.34893C4.9584 9.4405 4.85158 9.57065 4.78851 9.72292C4.72544 9.87519 4.70894 10.0427 4.74109 10.2044C4.77324 10.366 4.85261 10.5145 4.96916 10.6311C5.0857 10.7476 5.23419 10.827 5.39584 10.8591C5.55749 10.8913 5.72504 10.8748 5.87731 10.8117C6.02959 10.7486 6.15974 10.6418 6.2513 10.5048C6.34287 10.3678 6.39175 10.2066 6.39175 10.0418C6.3974 9.92893 6.38002 9.81607 6.34068 9.71011C6.30134 9.60415 6.24085 9.50729 6.1629 9.42544C6.08495 9.34359 5.99116 9.27846 5.88724 9.234C5.78332 9.18954 5.67144 9.16668 5.55841 9.16682V9.20849ZM10.5584 4.20849C10.3936 4.20849 10.2325 4.25736 10.0954 4.34893C9.9584 4.4405 9.85158 4.57065 9.78851 4.72292C9.72544 4.87519 9.70894 5.04275 9.74109 5.2044C9.77324 5.36605 9.85261 5.51453 9.96916 5.63108C10.0857 5.74762 10.2342 5.82699 10.3958 5.85914C10.5575 5.8913 10.725 5.8748 10.8773 5.81172C11.0296 5.74865 11.1597 5.64184 11.2513 5.5048C11.3429 5.36776 11.3917 5.20664 11.3917 5.04182C11.3974 4.92893 11.38 4.81607 11.3407 4.71011C11.3013 4.60415 11.2409 4.50729 11.1629 4.42544C11.0849 4.34359 10.9912 4.27846 10.8872 4.234C10.7833 4.18954 10.6714 4.16668 10.5584 4.16682V4.20849ZM13.5084 5.91682C13.3914 6.03317 13.3115 6.18164 13.279 6.34343C13.2464 6.50522 13.2626 6.67303 13.3255 6.82559C13.3885 6.97815 13.4953 7.10859 13.6324 7.20038C13.7696 7.29216 13.9309 7.34116 14.0959 7.34116C14.2609 7.34116 14.4223 7.29216 14.5594 7.20038C14.6966 7.10859 14.8034 6.97815 14.8663 6.82559C14.9292 6.67303 14.9454 6.50522 14.9129 6.34343C14.8803 6.18164 14.8005 6.03317 14.6834 5.91682C14.5329 5.75595 14.3247 5.66126 14.1045 5.65345C13.8843 5.64564 13.67 5.72535 13.5084 5.87516V5.91682ZM18.7584 5.91682C17.9965 4.39374 16.8254 3.113 15.3764 2.21824C13.9274 1.32348 12.2578 0.850058 10.5547 0.851076C8.85174 0.852094 7.18268 1.32751 5.73473 2.224C4.28678 3.1205 3.11721 4.40263 2.35714 5.92662C1.59708 7.45062 1.27659 9.15622 1.43162 10.8522C1.58664 12.5481 2.21104 14.1673 3.2348 15.5283C4.25856 16.8892 5.64121 17.9381 7.22769 18.5572C8.81418 19.1763 10.5418 19.3412 12.2167 19.0335C12.6379 18.9542 13.0391 18.7918 13.3968 18.5557C13.7545 18.3196 14.0616 18.0146 14.3001 17.6585C14.557 17.2713 14.7343 16.8369 14.8216 16.3804C14.9089 15.924 14.9044 15.4548 14.8084 15.0002C14.7559 14.7254 14.728 14.4465 14.7251 14.1668C14.7287 13.3593 14.967 12.5702 15.4108 11.8956C15.8546 11.221 16.485 10.6898 17.2251 10.3668C17.6241 10.1881 17.9823 9.92959 18.2776 9.60711C18.5728 9.28462 18.7989 8.90505 18.9417 8.49182C19.0862 8.06956 19.1445 7.62258 19.113 7.17739C19.0815 6.7322 18.9609 6.29787 18.7584 5.90016V5.91682ZM17.3417 7.95016C17.2706 8.14959 17.1602 8.33273 17.0171 8.48875C16.874 8.64477 16.701 8.77049 16.5084 8.85849C15.4834 9.31732 14.6126 10.0623 14.0006 11.0039C13.3886 11.9455 13.0615 13.0438 13.0584 14.1668C13.0596 14.5586 13.0987 14.9493 13.1751 15.3335C13.226 15.5683 13.2293 15.811 13.185 16.0471C13.1406 16.2833 13.0494 16.5081 12.9167 16.7085C12.8045 16.8838 12.6568 17.0337 12.4831 17.1485C12.3095 17.2634 12.1137 17.3406 11.9084 17.3752C11.4633 17.4588 11.0113 17.5007 10.5584 17.5002C9.55355 17.5006 8.55884 17.2992 7.63335 16.9078C6.70786 16.5164 5.87046 15.943 5.17088 15.2216C4.4713 14.5003 3.92381 13.6457 3.56092 12.7087C3.19804 11.7716 3.02715 10.7712 3.05841 9.76682C3.12309 7.89415 3.88258 6.11262 5.18894 4.76929C6.49529 3.42596 8.25494 2.61706 10.1251 2.50016H10.5501C11.9465 2.50051 13.3152 2.89073 14.5018 3.62688C15.6885 4.36303 16.6461 5.41586 17.2667 6.66682C17.4578 7.06264 17.4847 7.51789 17.3417 7.93349V7.95016ZM10.5584 9.16682C10.3936 9.16682 10.2325 9.2157 10.0954 9.30726C9.9584 9.39883 9.85158 9.52898 9.78851 9.68125C9.72544 9.83352 9.70894 10.0011 9.74109 10.1627C9.77324 10.3244 9.85261 10.4729 9.96916 10.5894C10.0857 10.706 10.2342 10.7853 10.3958 10.8175C10.5575 10.8496 10.725 10.8331 10.8773 10.7701C11.0296 10.707 11.1597 10.6002 11.2513 10.4631C11.3429 10.3261 11.3917 10.165 11.3917 10.0002C11.3917 9.77914 11.3039 9.56718 11.1477 9.4109C10.9914 9.25462 10.7794 9.16682 10.5584 9.16682Z" fill="white"/>
</svg>
