<svg width="25" height="25" viewBox="0 0 25 25" fill="none" xmlns="http://www.w3.org/2000/svg">
<path d="M5.76904 10.2499C5.7678 9.36045 5.94262 8.47951 6.28343 7.6579C6.62424 6.83628 7.1243 6.09025 7.75477 5.4628C8.38525 4.83535 9.13368 4.33889 9.95693 4.00204C10.7802 3.66519 11.6619 3.49461 12.5514 3.50013C16.263 3.52772 19.2317 6.61275 19.2317 10.3347V10.9999C19.2317 14.3577 19.9342 16.3061 20.5529 17.371C20.6196 17.4848 20.6551 17.6142 20.6558 17.746C20.6565 17.8779 20.6224 18.0076 20.5569 18.1221C20.4915 18.2366 20.3971 18.3318 20.2831 18.3982C20.1691 18.4645 20.0397 18.4996 19.9078 18.4999H5.09222C4.96034 18.4996 4.83087 18.4645 4.71689 18.3981C4.6029 18.3318 4.50844 18.2366 4.44301 18.122C4.37759 18.0075 4.34352 17.8778 4.34425 17.7459C4.34498 17.614 4.38048 17.4846 4.44716 17.3709C5.06622 16.3059 5.76904 14.3575 5.76904 10.9999L5.76904 10.2499Z" stroke="white" stroke-width="2" stroke-linecap="round" stroke-linejoin="round"/>
<path d="M9.5 18.5V19.25C9.5 20.0456 9.81607 20.8087 10.3787 21.3713C10.9413 21.9339 11.7044 22.25 12.5 22.25C13.2956 22.25 14.0587 21.9339 14.6213 21.3713C15.1839 20.8087 15.5 20.0456 15.5 19.25V18.5" stroke="white" stroke-width="2" stroke-linecap="round" stroke-linejoin="round"/>
</svg>
