<svg width="21" height="20" viewBox="0 0 21 20" fill="none" xmlns="http://www.w3.org/2000/svg">
<path fill-rule="evenodd" clip-rule="evenodd" d="M14.3932 10.7391C14.8479 10.8101 15.159 11.2363 15.088 11.691C14.9279 12.7168 14.4459 13.6652 13.7118 14.3993C12.9777 15.1335 12.0293 15.6154 11.0035 15.7755C10.5488 15.8465 10.1226 15.5354 10.0516 15.0807C9.9806 14.626 10.2917 14.1998 10.7464 14.1288C11.4232 14.0231 12.0489 13.7052 12.5333 13.2208C13.0177 12.7364 13.3356 12.1107 13.4413 11.4339C13.5123 10.9792 13.9385 10.6681 14.3932 10.7391Z" fill="#E6E6EB"/>
<path fill-rule="evenodd" clip-rule="evenodd" d="M11.1523 0.864835C11.4804 0.559 11.9918 0.567784 12.3092 0.884707C14.5744 3.14622 17.6457 6.49385 17.6457 10.9376C17.6457 12.8991 16.8665 14.7803 15.4795 16.1673C14.0925 17.5542 12.2113 18.3334 10.2498 18.3334C8.28834 18.3334 6.40718 17.5542 5.02019 16.1673C3.63321 14.7803 2.854 12.8991 2.854 10.9376C2.854 8.74961 3.95185 6.50179 5.18321 4.6455C5.43207 4.27033 5.93393 4.16065 6.31662 4.39781L6.3167 4.39786C6.32454 4.40272 6.3323 4.40771 6.33998 4.41283L8.66126 5.96035L10.968 1.11623C11.013 1.02162 11.0755 0.936348 11.1522 0.864898L11.1523 0.864835ZM11.9594 2.91075L9.75222 7.54589C9.64825 7.76422 9.45457 7.92662 9.22146 7.99093C8.98835 8.05525 8.73879 8.01512 8.53759 7.88099L6.12496 6.27257C5.17795 7.84286 4.52067 9.4738 4.52067 10.9376C4.52067 12.4571 5.12428 13.9143 6.1987 14.9887C7.27313 16.0632 8.73037 16.6668 10.2498 16.6668C11.7693 16.6668 13.2265 16.0632 14.301 14.9887C15.3754 13.9143 15.979 12.4571 15.979 10.9376C15.979 7.69584 13.9986 5.05808 11.9594 2.91075Z" fill="#E6E6EB"/>
</svg>
