<svg width="21" height="20" viewBox="0 0 21 20" fill="none" xmlns="http://www.w3.org/2000/svg">
<path fill-rule="evenodd" clip-rule="evenodd" d="M7.556 2.66259C7.71056 2.43075 7.97075 2.2915 8.24938 2.2915H13.2494C13.528 2.2915 13.7882 2.43075 13.9428 2.66259L14.9454 4.1665H16.9998C17.5524 4.1665 18.0823 4.386 18.473 4.7767C18.8637 5.1674 19.0832 5.6973 19.0832 6.24984V14.9998C19.0832 15.5524 18.8637 16.0823 18.473 16.473C18.0823 16.8637 17.5524 17.0832 16.9998 17.0832H4.49984C3.9473 17.0832 3.4174 16.8637 3.0267 16.473C2.636 16.0823 2.4165 15.5524 2.4165 14.9998V6.24984C2.4165 5.6973 2.636 5.1674 3.0267 4.7767C3.4174 4.386 3.9473 4.1665 4.49984 4.1665H6.55339L7.556 2.66259ZM8.69537 3.95817L7.69276 5.46209C7.5382 5.69392 7.27801 5.83317 6.99938 5.83317H4.49984C4.38933 5.83317 4.28335 5.87707 4.20521 5.95521C4.12707 6.03335 4.08317 6.13933 4.08317 6.24984V14.9998C4.08317 15.1103 4.12707 15.2163 4.20521 15.2945C4.28335 15.3726 4.38933 15.4165 4.49984 15.4165H16.9998C17.1103 15.4165 17.2163 15.3726 17.2945 15.2945C17.3726 15.2163 17.4165 15.1103 17.4165 14.9998V6.24984C17.4165 6.13933 17.3726 6.03335 17.2945 5.95521C17.2163 5.87707 17.1103 5.83317 16.9998 5.83317H14.4994C14.2208 5.83317 13.9606 5.69392 13.806 5.46209L12.8034 3.95817H8.69537Z" fill="white"/>
<path fill-rule="evenodd" clip-rule="evenodd" d="M10.7498 8.33317C9.65677 8.33317 8.77067 9.21927 8.77067 10.3123C8.77067 11.4054 9.65677 12.2915 10.7498 12.2915C11.8429 12.2915 12.729 11.4054 12.729 10.3123C12.729 9.21927 11.8429 8.33317 10.7498 8.33317ZM7.104 10.3123C7.104 8.2988 8.7363 6.6665 10.7498 6.6665C12.7634 6.6665 14.3957 8.2988 14.3957 10.3123C14.3957 12.3259 12.7634 13.9582 10.7498 13.9582C8.7363 13.9582 7.104 12.3259 7.104 10.3123Z" fill="white"/>
</svg>
