<svg width="21" height="20" viewBox="0 0 21 20" fill="none" xmlns="http://www.w3.org/2000/svg">
<path fill-rule="evenodd" clip-rule="evenodd" d="M5.45817 10.8332C8.849 10.8332 8.99984 11.9832 8.99984 14.3748C8.99984 15.5732 8.99984 16.4257 8.4965 17.0498C7.91734 17.769 6.86317 17.9165 5.45817 17.9165C4.05317 17.9165 2.999 17.769 2.41984 17.0498C1.9165 16.4257 1.9165 15.574 1.9165 14.3957L2.5415 14.3748H1.9165C1.9165 11.9832 2.06734 10.8332 5.45817 10.8332ZM14.6248 10.8332C18.0157 10.8332 18.1665 11.9832 18.1665 14.3748C18.1665 15.5732 18.1665 16.4257 17.6632 17.0498C17.084 17.769 16.0298 17.9165 14.6248 17.9165C13.2198 17.9165 12.1657 17.769 11.5865 17.0498C11.0832 16.4257 11.0832 15.574 11.0832 14.3957L11.7082 14.3748H11.0832C11.0832 11.9832 11.234 10.8332 14.6248 10.8332ZM5.62997 12.0835L5.45817 12.0832C3.28403 12.0832 3.17253 12.2392 3.16681 14.064L3.16716 14.775C3.17111 15.5008 3.19877 16.0251 3.39234 16.2665C3.61317 16.5398 4.269 16.6665 5.45817 16.6665C6.64734 16.6665 7.30317 16.539 7.524 16.2657C7.74984 15.9848 7.74984 15.3182 7.74984 14.3948C7.74984 12.3113 7.74984 12.0934 5.62997 12.0835ZM14.7966 12.0835L14.6248 12.0832C12.4507 12.0832 12.3392 12.2392 12.3335 14.064L12.3338 14.775C12.3378 15.5008 12.3654 16.0251 12.559 16.2665C12.7798 16.5398 13.4357 16.6665 14.6248 16.6665C15.814 16.6665 16.4698 16.539 16.6907 16.2657C16.9165 15.9848 16.9165 15.3182 16.9165 14.3948C16.9165 12.3113 16.9165 12.0934 14.7966 12.0835ZM5.45817 1.6665C8.849 1.6665 8.99984 2.8165 8.99984 5.20817C8.99984 6.4065 8.99984 7.259 8.4965 7.88317C7.91734 8.60234 6.86317 8.74984 5.45817 8.74984C4.05317 8.74984 2.999 8.60234 2.41984 7.88317C1.9165 7.259 1.9165 6.40734 1.9165 5.229L2.5415 5.20817H1.9165C1.9165 2.8165 2.06734 1.6665 5.45817 1.6665ZM14.6248 1.6665C18.0157 1.6665 18.1665 2.8165 18.1665 5.20817C18.1665 6.4065 18.1665 7.259 17.6632 7.88317C17.084 8.60234 16.0298 8.74984 14.6248 8.74984C13.2198 8.74984 12.1657 8.60234 11.5865 7.88317C11.0832 7.259 11.0832 6.40734 11.0832 5.229L11.7082 5.20817H11.0832C11.0832 2.8165 11.234 1.6665 14.6248 1.6665ZM5.62997 2.91688L5.45817 2.9165C3.28403 2.9165 3.17253 3.07252 3.16681 4.89738L3.16716 5.60832C3.17111 6.33412 3.19877 6.85841 3.39234 7.09984C3.61317 7.37317 4.269 7.49984 5.45817 7.49984C6.64734 7.49984 7.30317 7.37234 7.524 7.099C7.74984 6.81817 7.74984 6.1515 7.74984 5.22817C7.74984 3.14467 7.74984 2.92668 5.62997 2.91688ZM14.7966 2.91688L14.6248 2.9165C12.4507 2.9165 12.3392 3.07252 12.3335 4.89738L12.3338 5.60832C12.3378 6.33412 12.3654 6.85841 12.559 7.09984C12.7798 7.37317 13.4357 7.49984 14.6248 7.49984C15.814 7.49984 16.4698 7.37234 16.6907 7.099C16.9165 6.81817 16.9165 6.1515 16.9165 5.22817C16.9165 3.14467 16.9165 2.92668 14.7966 2.91688Z" fill="white" stroke="white" stroke-width="0.5"/>
</svg>
