<svg width="12" height="15" viewBox="0 0 12 15" fill="none" xmlns="http://www.w3.org/2000/svg">
<path fill-rule="evenodd" clip-rule="evenodd" d="M9.31485 8.59108C9.67863 8.64788 9.92749 8.98882 9.8707 9.35261C9.74257 10.1732 9.35705 10.932 8.76974 11.5193C8.18244 12.1066 7.42373 12.4921 6.6031 12.6202C6.23932 12.677 5.89837 12.4282 5.84157 12.0644C5.78477 11.7006 6.03363 11.3596 6.39742 11.3029C6.93886 11.2183 7.43944 10.9639 7.82693 10.5765C8.21442 10.189 8.46879 9.68837 8.55332 9.14693C8.61012 8.78315 8.95106 8.53429 9.31485 8.59108Z" fill="#C379F6"/>
<path fill-rule="evenodd" clip-rule="evenodd" d="M6.7221 0.691672C6.98461 0.447005 7.3937 0.454032 7.64765 0.707571C9.45984 2.51678 11.9168 5.19489 11.9168 8.74989C11.9168 10.3191 11.2935 11.824 10.1839 12.9336C9.07429 14.0432 7.56936 14.6666 6.00016 14.6666C4.43097 14.6666 2.92604 14.0432 1.81645 12.9336C0.706857 11.824 0.0834961 10.3191 0.0834961 8.74989C0.0834961 6.9995 0.961772 5.20123 1.94686 3.71621C2.14595 3.41607 2.54744 3.32833 2.85359 3.51805L2.85365 3.5181C2.85993 3.52198 2.86614 3.52597 2.87228 3.53007L4.7293 4.76808L6.57468 0.892791C6.61072 0.817098 6.66072 0.748883 6.72205 0.691723L6.7221 0.691672ZM7.36784 2.3284L5.60207 6.03652C5.5189 6.21118 5.36395 6.3411 5.17746 6.39255C4.99097 6.444 4.79133 6.4119 4.63036 6.30459L2.70026 5.01786C1.94265 6.27409 1.41683 7.57885 1.41683 8.74989C1.41683 9.96547 1.89971 11.1313 2.75926 11.9908C3.6188 12.8503 4.78459 13.3332 6.00016 13.3332C7.21574 13.3332 8.38153 12.8503 9.24107 11.9908C10.1006 11.1313 10.5835 9.96547 10.5835 8.74989C10.5835 6.15648 8.99917 4.04627 7.36784 2.3284Z" fill="#C379F6"/>
</svg>
