<svg width="32" height="32" viewBox="0 0 32 32" fill="none" xmlns="http://www.w3.org/2000/svg">
<path d="M15 20H25C25.2652 20 25.5196 20.1054 25.7071 20.2929C25.8946 20.4804 26 20.7348 26 21C26 21.2652 25.8946 21.5196 25.7071 21.7071C25.5196 21.8946 25.2652 22 25 22H15C14.7348 22 14.4804 21.8946 14.2929 21.7071C14.1054 21.5196 14 21.2652 14 21C14 20.7348 14.1054 20.4804 14.2929 20.2929C14.4804 20.1054 14.7348 20 15 20ZM25 12H7C6.73478 12 6.48043 11.8946 6.29289 11.7071C6.10536 11.5196 6 11.2652 6 11C6 10.7348 6.10536 10.4804 6.29289 10.2929C6.48043 10.1054 6.73478 10 7 10H25C25.2652 10 25.5196 10.1054 25.7071 10.2929C25.8946 10.4804 26 10.7348 26 11C26 11.2652 25.8946 11.5196 25.7071 11.7071C25.5196 11.8946 25.2652 12 25 12ZM7 15H25C25.2652 15 25.5196 15.1054 25.7071 15.2929C25.8946 15.4804 26 15.7348 26 16C26 16.2652 25.8946 16.5196 25.7071 16.7071C25.5196 16.8946 25.2652 17 25 17H7C6.73478 17 6.48043 16.8946 6.29289 16.7071C6.10536 16.5196 6 16.2652 6 16C6 15.7348 6.10536 15.4804 6.29289 15.2929C6.48043 15.1054 6.73478 15 7 15Z" fill="white"/>
</svg>
