<svg width="16" height="16" viewBox="0 0 16 16" fill="none" xmlns="http://www.w3.org/2000/svg">
<path fill-rule="evenodd" clip-rule="evenodd" d="M10.3046 0.406582C10.5697 0.542661 10.7123 0.838198 10.6539 1.13044L9.76508 5.57454L13.2343 6.87548C13.4427 6.95364 13.5983 7.13066 13.6492 7.34736C13.7001 7.56406 13.6394 7.79185 13.4875 7.95458L6.48754 15.4546C6.28419 15.6725 5.96093 15.7289 5.69578 15.5928C5.43063 15.4567 5.288 15.1612 5.34645 14.869L6.23527 10.4249L2.76609 9.12392C2.55767 9.04576 2.40201 8.86874 2.35115 8.65204C2.30028 8.43534 2.36093 8.20755 2.5128 8.04482L9.5128 0.54482C9.71616 0.326942 10.0394 0.270502 10.3046 0.406582ZM4.16792 8.2256L7.23426 9.37548C7.54029 9.49024 7.71799 9.80995 7.65389 10.1304L7.11417 12.8291L11.8324 7.77379L8.76609 6.62392C8.46006 6.50916 8.28235 6.18945 8.34645 5.86896L8.88618 3.17033L4.16792 8.2256Z" fill="#FF72D2"/>
</svg>
