<svg width="21" height="20" viewBox="0 0 21 20" fill="none" xmlns="http://www.w3.org/2000/svg">
<g clip-path="url(#clip0_2254_3504)">
<path d="M15.0156 4.76562C14.1972 4.76562 13.4221 4.95461 12.7314 5.29098C12.0222 4.94652 11.241 4.76562 10.4453 4.76562C9.54914 4.76562 8.70492 4.99215 7.96672 5.39074C7.20664 4.98078 6.35578 4.76562 5.48438 4.76562C2.59812 4.76562 0.25 7.11375 0.25 10C0.25 12.8862 2.59812 15.2344 5.48438 15.2344C6.35582 15.2344 7.20664 15.0192 7.96672 14.6093C8.70492 15.0079 9.54914 15.2344 10.4453 15.2344C11.238 15.2344 12.0229 15.053 12.7315 14.709C13.4221 15.0454 14.1972 15.2344 15.0156 15.2344C17.9019 15.2344 20.25 12.8862 20.25 10C20.25 7.11375 17.9019 4.76562 15.0156 4.76562ZM6.56516 13.5095C6.2175 13.6164 5.85371 13.6719 5.48438 13.6719C3.45969 13.6719 1.8125 12.0247 1.8125 10C1.8125 7.97531 3.45969 6.32812 5.48438 6.32812C5.85371 6.32812 6.2175 6.38363 6.56516 6.49047C5.72402 7.41957 5.21094 8.65098 5.21094 10C5.21094 11.349 5.72402 12.5804 6.56516 13.5095ZM11.211 13.591C10.9602 13.6443 10.7034 13.6719 10.4453 13.6719C8.42062 13.6719 6.77344 12.0247 6.77344 10C6.77344 7.97531 8.42062 6.32812 10.4453 6.32812C10.7042 6.32812 10.9608 6.35555 11.2112 6.40875C10.3253 7.34676 9.78125 8.61098 9.78125 10C9.78125 11.3889 10.3252 12.653 11.211 13.591ZM15.0156 13.6719C12.9909 13.6719 11.3438 12.0247 11.3438 10C11.3438 7.97531 12.9909 6.32812 15.0156 6.32812C17.0403 6.32812 18.6875 7.97531 18.6875 10C18.6875 12.0247 17.0403 13.6719 15.0156 13.6719Z" fill="white"/>
</g>
<defs>
<clipPath id="clip0_2254_3504">
<rect width="20" height="20" fill="white" transform="translate(0.25)"/>
</clipPath>
</defs>
</svg>
