<svg width="25" height="25" viewBox="0 0 25 25" fill="none" xmlns="http://www.w3.org/2000/svg">
<path fill-rule="evenodd" clip-rule="evenodd" d="M5.75 6C5.61739 6 5.49021 6.05268 5.39645 6.14645C5.30268 6.24021 5.25 6.36739 5.25 6.5C5.25 6.63261 5.30268 6.75978 5.39645 6.85355C5.49022 6.94732 5.61739 7 5.75 7H20.75C21.2141 7 21.6592 7.18437 21.9874 7.51256C22.3156 7.84075 22.5 8.28587 22.5 8.75V19.25C22.5 19.7141 22.3156 20.1592 21.9874 20.4874C21.6592 20.8156 21.2141 21 20.75 21H5.75C5.08696 21 4.45107 20.7366 3.98223 20.2678C3.51339 19.7989 3.25 19.163 3.25 18.5V6.5C3.25 5.83696 3.51339 5.20107 3.98223 4.73223C4.45107 4.26339 5.08696 4 5.75 4H18.5C19.0523 4 19.5 4.44772 19.5 5C19.5 5.55228 19.0523 6 18.5 6H5.75ZM5.25 8.9495V18.5C5.25 18.6326 5.30268 18.7598 5.39645 18.8536C5.49022 18.9473 5.61739 19 5.75 19H20.5V9H5.75C5.58079 9 5.41335 8.98285 5.25 8.9495Z" fill="white"/>
<path d="M17 15.5C17.8284 15.5 18.5 14.8284 18.5 14C18.5 13.1716 17.8284 12.5 17 12.5C16.1716 12.5 15.5 13.1716 15.5 14C15.5 14.8284 16.1716 15.5 17 15.5Z" fill="white"/>
</svg>
